<?xml version="1.0" standalone="no"?><!DOCTYPE svg PUBLIC "-//W3C//DTD SVG 1.1//EN" "http://www.w3.org/Graphics/SVG/1.1/DTD/svg11.dtd"><svg t="1784115202203" class="icon" viewBox="0 0 1024 1024" version="1.1" xmlns="http://www.w3.org/2000/svg" p-id="2830" xmlns:xlink="http://www.w3.org/1999/xlink" width="200" height="200"><path d="M143.232 496.832v337.92c0 45.248 36.672 81.92 81.92 81.92h614.4a81.92 81.92 0 0 0 81.92-81.92v-337.92H143.232z m-71.68-71.68h921.6v409.6a153.6 153.6 0 0 1-153.6 153.6h-614.4a153.6 153.6 0 0 1-153.6-153.6v-409.6z m689.28-307.84l59.968 103.744 84.16-14.848-5.312-30.208a81.92 81.92 0 0 0-94.912-66.496l-43.904 7.744z m-15.168 116.992l-59.904-103.808-85.888 15.168 59.968 103.808 85.824-15.168z m-160.96 28.416l-59.968-103.808-85.824 15.104 59.904 103.808 85.888-15.104z m-160.96 28.352l-59.968-103.808-85.824 15.168 59.904 103.808 85.888-15.168z m-161.024 28.416L202.88 215.68l-3.136 0.512a81.92 81.92 0 0 0-66.432 94.912l5.312 30.272 124.16-21.888z m-75.52-173.888L792.32 38.912a153.6 153.6 0 0 1 177.92 124.608l17.792 100.864-907.584 160-17.792-100.8a153.6 153.6 0 0 1 124.608-177.92z m3.84 390.528H873.6v267.392c0 40.832-33.088 73.92-73.92 73.92H264.96a73.984 73.984 0 0 1-73.984-73.92V536.128z" fill="#2c2c2c" opacity=".9" p-id="2831"></path></svg>